<svg width="109" height="30" viewBox="0 0 109 30" fill="none" xmlns="http://www.w3.org/2000/svg">
<g clip-path="url(#clip0_65_760)">
<path d="M31.7579 23.6702L31.7344 23.6937V26.9397L31.7579 26.9631H32.756C33.7682 26.9631 34.4979 26.234 34.4979 25.3167C34.4979 24.3994 33.7682 23.6702 32.756 23.6702H31.7579ZM32.0969 24.0325H32.756C33.5234 24.0325 34.079 24.5969 34.079 25.3167C34.079 26.0364 33.5234 26.6009 32.756 26.6009H32.0969V24.0325ZM35.6447 23.6702L35.6212 23.6937V26.9397L35.6447 26.9631H35.9602L35.9837 26.9397V23.6937L35.9602 23.6702H35.6447ZM40.0892 24.3194V23.9054C39.7831 23.6749 39.3595 23.5996 38.9122 23.5996C37.9 23.5996 37.1232 24.3758 37.1232 25.3167C37.1232 26.281 37.9236 27.0337 38.9357 27.0337C39.3595 27.0337 39.7831 26.9161 40.1363 26.6574V25.1803L40.1128 25.1567H39.0299L39.0064 25.1803V25.5001L39.0299 25.5237H39.7737V26.441C39.5242 26.5868 39.2088 26.6527 38.9357 26.6527C38.1448 26.6527 37.5375 26.074 37.5375 25.3167C37.5375 24.5734 38.1213 23.9807 38.9122 23.9807C39.3124 23.9807 39.7502 24.0653 40.0656 24.3429L40.0892 24.3194ZM41.3909 23.6702L41.3673 23.6937V26.9397L41.3909 26.9631H41.7063L41.7298 26.9397V23.6937L41.7063 23.6702H41.3909ZM42.7704 23.6702L42.7469 23.6937V24.0089L42.7704 24.0325H43.8815V26.9397L43.905 26.9631H44.2252L44.2487 26.9397V24.0325H45.3598L45.3833 24.0089V23.6937L45.3598 23.6702H42.7704ZM46.8381 23.6702L46.8146 23.6937L45.5057 26.9397L45.5293 26.9631H45.8777L45.9012 26.9397L46.2496 26.0788H47.7561L48.1092 26.9397L48.1328 26.9631H48.4811L48.5047 26.9397L47.1912 23.6937L47.1677 23.6702H46.8381ZM47.0029 24.1688L47.6149 25.7166H46.3955L47.0029 24.1688ZM49.4743 23.6702L49.4554 23.689V26.9443L49.4743 26.9631H51.3527L51.3716 26.9443V26.6245L51.3527 26.6009H49.818V23.689L49.7991 23.6702H49.4743ZM52.2251 25.6742L52.2016 25.6977V26.0176L52.2251 26.0412H53.6846L53.7081 26.0176V25.6977L53.6846 25.6742H52.2251ZM55.7768 23.6702L55.7532 23.6937L54.4444 26.9397L54.468 26.9631H54.8163L54.8399 26.9397L55.1883 26.0788H56.6949L57.0479 26.9397L57.0715 26.9631H57.4199L57.4434 26.9397L56.1299 23.6937L56.1063 23.6702H55.7768ZM55.9416 24.1688L56.5536 25.7166H55.3342L55.9416 24.1688ZM58.4177 23.6702L58.3941 23.6937V26.9397L58.4177 26.9631H58.7331L58.7566 26.9397V24.0325H60.2868L60.3103 24.0089V23.6937L60.2868 23.6702H58.4177ZM61.3528 23.6702L61.3292 23.6937V26.9397L61.3528 26.9631H63.3631L63.3867 26.9397V26.6245L63.3631 26.6009H61.6918V25.3355H62.8453L62.8688 25.312V24.9921L62.8453 24.9686H61.6918V24.0325H63.2219L63.2454 24.0089V23.6937L63.2219 23.6702H61.3528ZM64.4764 23.6702L64.4529 23.6937V26.9397L64.4764 26.9631H64.7919L64.8154 26.9397V25.3355H66.7127V26.9397L66.7362 26.9631H67.0515L67.075 26.9397V23.6937L67.0515 23.6702H66.7362L66.7127 23.6937V24.9686H64.8154V23.6937L64.7919 23.6702H64.4764ZM68.1134 23.6702L68.0899 23.6937V24.0089L68.1134 24.0325H69.2243V26.9397L69.2478 26.9631H69.5683L69.5918 26.9397V24.0325H70.7027L70.7262 24.0089V23.6937L70.7027 23.6702H68.1134ZM74.0699 24.3664V23.9524C73.7638 23.7313 73.3872 23.5996 72.9401 23.5996C71.9748 23.5996 71.1981 24.3758 71.1981 25.3167C71.1981 26.2575 71.9748 27.0337 72.9401 27.0337C73.3872 27.0337 73.7638 26.902 74.0699 26.6809V26.2669L74.0464 26.2434C73.7312 26.5021 73.3402 26.6527 72.9401 26.6527C72.2104 26.6527 71.6125 26.0599 71.6125 25.3167C71.6125 24.5734 72.2104 23.9807 72.9401 23.9807C73.3402 23.9807 73.7312 24.1312 74.0464 24.39L74.0699 24.3664ZM75.0137 23.6702L74.9902 23.6937V24.0089L75.0137 24.0325H76.1246V26.9397L76.1481 26.9631H76.4686L76.4921 26.9397V24.0325H77.6029L77.6264 24.0089V23.6937L77.6029 23.6702H75.0137ZM78.6675 23.6702L78.644 23.6937V26.9397L78.6675 26.9631H79.7412C80.3762 26.9631 80.8475 26.535 80.8475 25.9706C80.8475 25.5566 80.6119 25.2179 80.0989 25.0768C80.3058 24.9591 80.4467 24.7757 80.4467 24.4982C80.4467 23.9995 80.0754 23.6702 79.4161 23.6702H78.6675ZM79.0062 24.0325H79.4161C79.8443 24.0325 80.0329 24.2112 80.0329 24.4982C80.0329 24.8228 79.8019 24.9921 79.4161 24.9921H79.0062V24.0325ZM79.0062 25.359H79.7412C80.1648 25.359 80.433 25.6131 80.433 25.9706C80.433 26.3469 80.1648 26.6009 79.7412 26.6009H79.0062V25.359ZM83.5248 23.5996C82.5641 23.5996 81.7828 24.3711 81.7828 25.3167C81.7828 26.2622 82.5641 27.0337 83.5248 27.0337C84.485 27.0337 85.2662 26.2622 85.2662 25.3167C85.2662 24.3711 84.485 23.5996 83.5248 23.5996ZM83.5248 23.9807C84.2546 23.9807 84.8472 24.5781 84.8472 25.3167C84.8472 26.0552 84.2546 26.6527 83.5248 26.6527C82.7951 26.6527 82.1966 26.0552 82.1966 25.3167C82.1966 24.5781 82.7951 23.9807 83.5248 23.9807Z" fill="white" fill-opacity="0.45"/>
<path fill-rule="evenodd" clip-rule="evenodd" d="M12.0749 2.60938C13.3808 2.60938 14.6382 2.81651 15.8162 3.1997L13.5299 7.25174H16.2319L17.9317 4.1212C21.6402 6.18045 24.1497 10.1347 24.1497 14.6746C24.1497 21.338 18.7436 26.7398 12.0749 26.7398C5.40609 26.7398 0 21.338 0 14.6746C0 8.01114 5.40609 2.60938 12.0749 2.60938ZM10.9476 9.47892L11.0172 9.40953H12.9626L13.032 9.47892L16.7145 19.0595L16.645 19.1289H14.4911L14.4216 19.0595L13.7268 17.1156H10.2529L9.55806 19.0595L9.48855 19.1289H7.33472L7.26521 19.0595L10.9476 9.47892ZM13.1015 15.1717L11.9899 11.9088L10.8782 15.1717H13.1015Z" fill="white" fill-opacity="0.45"/>
<path d="M34.8317 2.60938C35.9699 2.60938 36.8404 2.87548 37.4434 3.40741C38.0462 3.93935 38.3479 4.7422 38.3479 5.81544V10.2362H36.6403V9.31816C36.4184 9.6477 36.1025 9.89951 35.6926 10.0737C35.2826 10.248 34.7882 10.3351 34.2094 10.3351C33.6306 10.3351 33.1243 10.2386 32.6902 10.0456C32.2561 9.85248 31.921 9.58411 31.6845 9.24048C31.4482 8.89672 31.3301 8.50848 31.3301 8.07518C31.3301 7.39731 31.588 6.85359 32.1041 6.44391C32.6203 6.0344 33.4331 5.82963 34.5422 5.82963H36.5391V5.7166C36.5391 5.18935 36.3775 4.78452 36.0542 4.50195C35.7311 4.21951 35.2512 4.07822 34.6146 4.07822C34.1805 4.07822 33.7537 4.14424 33.334 4.27602C32.9144 4.4078 32.56 4.5914 32.2706 4.82684L31.5615 3.5416C31.9667 3.24028 32.4539 3.00953 33.023 2.84962C33.5922 2.68946 34.1949 2.60938 34.8317 2.60938ZM34.5857 9.04972C35.039 9.04972 35.4418 8.94851 35.7939 8.74614C36.1461 8.5437 36.3943 8.25414 36.5391 7.87757V7.00183H34.6725C33.6306 7.00183 33.1098 7.3362 33.1098 8.00468C33.1098 8.3247 33.24 8.57905 33.5004 8.76733C33.7608 8.95561 34.1228 9.04972 34.5857 9.04972ZM43.8027 7.21372H42.3991V10.2362H40.5906V2.69429H42.3991V5.74486H43.846L46.1323 2.69429H48.0712L45.2641 6.32394L48.2593 10.2362H46.1323L43.8027 7.21372ZM57.7459 8.73903L58.2793 10.2262L56.3189 10.2362H49.5325V2.69429H51.3412V8.73903H55.0309V2.69429H56.8395V8.73903H57.7459ZM66.8523 6.50752C66.8523 6.62996 66.8432 6.80422 66.8236 7.03014H60.7609C60.8669 7.58579 61.1445 8.02581 61.5929 8.35072C62.0414 8.67557 62.5987 8.83803 63.2641 8.83803C64.1128 8.83803 64.8121 8.56483 65.3622 8.01883L66.3315 9.10627C65.9842 9.51127 65.5456 9.81714 65.0147 10.0244C64.4841 10.2315 63.8863 10.3351 63.2208 10.3351C62.3716 10.3351 61.624 10.1702 60.9779 9.84068C60.3313 9.51127 59.8323 9.0522 59.4804 8.46368C59.128 7.87529 58.9521 7.20903 58.9521 6.46509C58.9521 5.73067 59.1235 5.06923 59.466 4.48079C59.8079 3.89234 60.283 3.43325 60.8908 3.10368C61.4985 2.77423 62.1835 2.60938 62.9455 2.60938C63.6982 2.60938 64.3709 2.77182 64.9642 3.09658C65.5574 3.42161 66.0202 3.87814 66.3537 4.46672C66.6859 5.05517 66.8523 5.73549 66.8523 6.50752ZM62.9455 4.02184C62.3666 4.02184 61.8771 4.18897 61.4769 4.52311C61.0767 4.8575 60.8331 5.30239 60.7464 5.85789H65.1307C65.053 5.31176 64.8171 4.86916 64.4214 4.5302C64.0262 4.19125 63.5338 4.02184 62.9455 4.02184ZM68.8346 2.69429H70.6432V5.75906H74.5352V2.69429H76.3445V10.2362H74.5352V7.25611H70.6432V10.2362H68.8346V2.69429ZM84.9013 4.19125H82.19V10.2362H80.3807V4.19125H77.661V2.69429H84.8902L84.9013 4.19125Z" fill="white" fill-opacity="0.45"/>
<path d="M106.72 19.8199H104.236L106.52 13.8652H109.004L106.72 19.8199Z" fill="white" fill-opacity="0.45"/>
<path d="M31.8867 13.7494H33.4903V15.9125H35.911V13.7494H37.5249V19.2914H35.911V17.2208H33.4903V19.2914H31.8867V13.7494ZM41.2285 13.667C42.0907 13.667 42.7528 13.8713 43.215 14.2799C43.6771 14.6885 43.9081 15.3048 43.9081 16.1289V19.2914H42.3977V18.6012C42.0941 19.1162 41.5286 19.3737 40.701 19.3737C40.2735 19.3737 39.9028 19.3016 39.5889 19.1574C39.2751 19.0132 39.0354 18.8141 38.8698 18.5599C38.7044 18.3059 38.6216 18.0175 38.6216 17.6947C38.6216 17.1796 38.8164 16.7744 39.2062 16.4791C39.5959 16.1838 40.1976 16.0362 41.0114 16.0362H42.2942C42.2942 15.6861 42.1874 15.4164 41.9735 15.2277C41.7596 15.0387 41.4389 14.9443 41.0114 14.9443C40.7148 14.9443 40.4234 14.9907 40.1372 15.0834C39.8509 15.176 39.608 15.3014 39.4079 15.4593L38.8285 14.3366C39.132 14.1236 39.4958 13.9588 39.9199 13.8421C40.3441 13.7254 40.7804 13.667 41.2285 13.667ZM41.1043 18.2922C41.3805 18.2922 41.6251 18.2286 41.8391 18.1016C42.0528 17.9746 42.2045 17.7873 42.2942 17.5402V16.9736H41.1872C40.5251 16.9736 40.1942 17.1899 40.1942 17.6227C40.1942 17.8287 40.2752 17.9916 40.4372 18.112C40.5993 18.2321 40.8217 18.2922 41.1043 18.2922ZM51.5223 13.667C52.0395 13.667 52.5102 13.7855 52.9344 14.0224C53.3585 14.2593 53.6913 14.5923 53.9327 15.0215C54.1742 15.4507 54.2948 15.9505 54.2948 16.5204C54.2948 17.0903 54.1742 17.5899 53.9327 18.0191C53.6913 18.4483 53.3585 18.7814 52.9344 19.0183C52.5102 19.2552 52.0395 19.3737 51.5223 19.3737C50.8119 19.3737 50.2533 19.1505 49.8463 18.7042V21.2898H48.2325V13.7494H49.7739V14.388C50.1739 13.9074 50.7566 13.667 51.5223 13.667ZM51.2429 18.0552C51.6568 18.0552 51.9964 17.9162 52.262 17.6381C52.5275 17.3599 52.6603 16.9874 52.6603 16.5204C52.6603 16.0534 52.5275 15.6809 52.262 15.4027C51.9964 15.1246 51.6568 14.9855 51.2429 14.9855C50.8291 14.9855 50.4895 15.1246 50.224 15.4027C49.9585 15.6809 49.8256 16.0534 49.8256 16.5204C49.8256 16.9874 49.9585 17.3599 50.224 17.6381C50.4895 17.9162 50.8291 18.0552 51.2429 18.0552ZM60.8333 16.541C60.8333 16.5616 60.8228 16.7058 60.8023 16.9736H56.5916C56.6674 17.317 56.8469 17.5883 57.1295 17.7873C57.412 17.9866 57.7638 18.0862 58.1848 18.0862C58.4746 18.0862 58.7316 18.0432 58.9554 17.9574C59.1797 17.8715 59.388 17.7359 59.5813 17.5505L60.44 18.4775C59.916 19.075 59.1504 19.3737 58.1433 19.3737C57.5156 19.3737 56.9605 19.2519 56.4778 19.0081C55.9948 18.7643 55.6225 18.426 55.3604 17.9934C55.0984 17.5607 54.9673 17.0697 54.9673 16.5204C54.9673 15.9778 55.0967 15.4886 55.3552 15.0525C55.6139 14.6165 55.9691 14.2765 56.4209 14.0328C56.8725 13.7888 57.3776 13.667 57.9366 13.667C58.4812 13.667 58.9742 13.7838 59.4157 14.0172C59.8572 14.2507 60.204 14.5855 60.4556 15.0215C60.707 15.4577 60.8333 15.9641 60.8333 16.541ZM57.9466 14.8826C57.581 14.8826 57.2746 14.9855 57.0259 15.1916C56.7777 15.3976 56.6259 15.6791 56.5705 16.0362H59.3122C59.2573 15.6861 59.1055 15.4062 58.8573 15.1967C58.6091 14.9873 58.3056 14.8826 57.9466 14.8826ZM65.6133 16.4071C65.9435 16.5101 66.2007 16.6681 66.3835 16.8809C66.5662 17.0937 66.6576 17.3479 66.6576 17.6432C66.6576 17.9934 66.5368 18.3007 66.2953 18.5651C66.0538 18.8296 65.7229 19.0338 65.3019 19.1781C64.8818 19.3222 64.4059 19.3944 63.8746 19.3944C63.4403 19.3944 63.0127 19.3497 62.5922 19.2605C62.1712 19.1712 61.7812 19.0372 61.4228 18.8588L61.8571 17.7359C62.4437 18.0175 63.0919 18.1582 63.8021 18.1582C64.1815 18.1582 64.4801 18.1016 64.6973 17.9883C64.9144 17.875 65.023 17.7152 65.023 17.5092C65.023 17.3307 64.9471 17.1952 64.7953 17.1024C64.6436 17.0096 64.4231 16.9634 64.1334 16.9634H62.9955V15.9641H63.9888C64.2713 15.9641 64.4884 15.9195 64.6402 15.8302C64.7921 15.741 64.8679 15.6104 64.8679 15.4388C64.8679 15.2601 64.7732 15.1228 64.5832 15.0267C64.3937 14.9306 64.1229 14.8826 63.771 14.8826C63.2332 14.8826 62.647 15.0095 62.0122 15.2637L61.6194 14.1511C62.3916 13.8147 63.1434 13.6465 63.8746 13.6465C64.3782 13.6465 64.828 13.7082 65.2247 13.8318C65.6211 13.9554 65.9331 14.1357 66.1609 14.3726C66.3887 14.6095 66.5029 14.8858 66.5029 15.2019C66.5029 15.4629 66.4226 15.6981 66.2647 15.9075C66.1061 16.117 65.8881 16.2834 65.6133 16.4071ZM73.4032 13.7494L70.8884 19.6313C70.6338 20.27 70.3179 20.7198 69.9426 20.9808C69.566 21.2418 69.113 21.3722 68.5817 21.3722C68.2919 21.3722 68.0054 21.3275 67.7228 21.2382C67.4408 21.149 67.2091 21.0254 67.0303 20.8674L67.6197 19.724C67.7443 19.834 67.8873 19.9197 68.0491 19.9816C68.211 20.0433 68.3709 20.0742 68.5302 20.0742C68.7508 20.0742 68.9303 20.021 69.068 19.9147C69.2064 19.808 69.3304 19.6313 69.4407 19.3841L69.4609 19.3326L67.0505 13.7494H68.7162L70.2787 17.5092L71.8504 13.7494H73.4032ZM79.1241 13.7494V19.2914H77.5093V15.0679H75.7509L75.6994 16.0466C75.6713 16.7744 75.6028 17.3789 75.4925 17.8595C75.3822 18.3402 75.2027 18.7179 74.9546 18.9927C74.7066 19.2672 74.3613 19.4047 73.9201 19.4047C73.6858 19.4047 73.4065 19.3634 73.0821 19.281L73.165 17.9626C73.2753 17.9762 73.3542 17.9831 73.4032 17.9831C73.644 17.9831 73.8248 17.8955 73.9456 17.7204C74.0663 17.5453 74.1473 17.3223 74.189 17.0508C74.2308 16.7796 74.2608 16.4209 74.2824 15.9745L74.3646 13.7494H79.1241ZM83.6857 15.5211C84.4096 15.5281 84.9657 15.6911 85.3514 16.0104C85.7378 16.3298 85.931 16.7814 85.931 17.3651C85.931 17.9762 85.7156 18.4518 85.2848 18.7918C84.8528 19.1316 84.2484 19.3016 83.4684 19.3016L80.6755 19.2914V13.7494H82.2785V15.5211H83.6857ZM83.3241 18.1582C83.6342 18.1651 83.8718 18.0999 84.0375 17.9626C84.2033 17.8251 84.2862 17.6191 84.2862 17.3445C84.2862 17.0766 84.2046 16.8809 84.0434 16.7572C83.8809 16.6337 83.6407 16.5684 83.3241 16.5616L82.2785 16.5512V18.1582H83.3241ZM91.1036 15.0679H89.2206V19.2914H87.6176V15.0679H85.7346V13.7494H91.1036V15.0679ZM94.1243 13.667C94.9865 13.667 95.6483 13.8713 96.1111 14.2799C96.5725 14.6885 96.8036 15.3048 96.8036 16.1289V19.2914H95.2933V18.6012C94.9904 19.1162 94.4245 19.3737 93.5969 19.3737C93.1694 19.3737 92.7987 19.3016 92.4847 19.1574C92.1708 19.0132 91.9312 18.8141 91.7655 18.5599C91.6003 18.3059 91.5174 18.0175 91.5174 17.6947C91.5174 17.1796 91.7126 16.7744 92.1016 16.4791C92.4919 16.1838 93.093 16.0362 93.9069 16.0362H95.1901C95.1901 15.6861 95.0831 15.4164 94.8697 15.2277C94.6556 15.0387 94.3351 14.9443 93.9069 14.9443C93.6106 14.9443 93.3195 14.9907 93.033 15.0834C92.7465 15.176 92.5036 15.3014 92.3033 15.4593L91.7243 14.3366C92.0272 14.1236 92.3914 13.9588 92.8156 13.8421C93.2399 13.7254 93.6759 13.667 94.1243 13.667ZM94.0003 18.2922C94.2764 18.2922 94.5211 18.2286 94.7346 18.1016C94.9486 17.9746 95.1001 17.7873 95.1901 17.5402V16.9736H94.0832C93.4207 16.9736 93.0898 17.1899 93.0898 17.6227C93.0898 17.8287 93.1707 17.9916 93.3326 18.112C93.4951 18.2321 93.7177 18.2922 94.0003 18.2922ZM102.643 15.0679H101.004V19.2914H99.4V15.0679H97.5176V13.7494H103.131L102.643 15.0679Z" fill="white" fill-opacity="0.45"/>
</g>
<defs>
<clipPath id="clip0_65_760">
<rect width="109" height="30" fill="white"/>
</clipPath>
</defs>
</svg>
