<svg width="16" height="20" viewBox="0 0 16 20" fill="none" xmlns="http://www.w3.org/2000/svg">
<path d="M13.3033 3.86322C14.6803 5.23999 15.4678 7.09831 15.4993 9.04523C15.5309 10.9921 14.8041 12.875 13.4725 14.2957L13.3033 14.4707L9.76748 18.0057C9.31884 18.4541 8.71655 18.7151 8.08261 18.736C7.44868 18.7569 6.83051 18.5361 6.35332 18.1182L6.23332 18.0057L2.69665 14.4699C1.29012 13.0634 0.499939 11.1557 0.499939 9.16655C0.499939 7.17741 1.29012 5.26975 2.69665 3.86322C4.10318 2.45669 6.01085 1.6665 7.99998 1.6665C9.98912 1.6665 11.8968 2.45669 13.3033 3.86322ZM7.99998 6.66655C7.67168 6.66655 7.34659 6.73121 7.04328 6.85685C6.73996 6.98249 6.46436 7.16664 6.23222 7.39878C6.00007 7.63093 5.81592 7.90653 5.69029 8.20984C5.56465 8.51316 5.49998 8.83824 5.49998 9.16655C5.49998 9.49485 5.56465 9.81994 5.69029 10.1233C5.81592 10.4266 6.00007 10.7022 6.23222 10.9343C6.46436 11.1665 6.73996 11.3506 7.04328 11.4762C7.34659 11.6019 7.67168 11.6665 7.99998 11.6665C8.66303 11.6665 9.29891 11.4032 9.76775 10.9343C10.2366 10.4655 10.5 9.82959 10.5 9.16655C10.5 8.50351 10.2366 7.86762 9.76775 7.39878C9.29891 6.92994 8.66303 6.66655 7.99998 6.66655Z" fill="#EF4824"/>
</svg>
