<svg width="35" height="35" viewBox="0 0 35 35" fill="none" xmlns="http://www.w3.org/2000/svg">
<path d="M13.1144 17.9333L13.1196 17.9397L13.1255 17.9456L16.0958 20.8861C16.2775 21.0659 16.5327 21.15 16.7789 21.15C17.0251 21.15 17.2803 21.0659 17.462 20.8861L22.8745 15.5278C23.0729 15.3315 23.15 15.0944 23.15 14.8331C23.15 14.5587 23.0308 14.3304 22.8856 14.1508L22.8804 14.1443L22.8745 14.1384C22.4902 13.758 21.8654 13.7488 21.5055 14.1413L16.795 18.8364L14.5247 16.5888C14.3265 16.3926 14.0878 16.3167 13.8251 16.3167C13.5985 16.3167 13.3255 16.3908 13.1255 16.5888L13.1196 16.5947L13.1144 16.6012C12.9717 16.7777 12.85 17.0065 12.85 17.2509C12.85 17.5253 12.9692 17.7537 13.1144 17.9333Z" fill="#2B2927" stroke="#2B2927" stroke-width="0.3"/>
<path d="M30.4031 6.51225L30.3896 6.50976H30.3785C30.3786 6.50976 30.3786 6.50976 30.3786 6.50975C30.3786 6.50965 30.3723 6.50916 30.3556 6.50685C30.3365 6.50422 30.3098 6.50011 30.2755 6.49441C30.207 6.48302 30.1107 6.4657 29.9892 6.44217C29.7463 6.39513 29.4043 6.32364 28.9852 6.22609C28.1469 6.03101 27.0016 5.73208 25.7255 5.31691C23.3983 4.55166 20.2083 3.19365 18.1652 1.11979C17.8109 0.760071 17.222 0.760071 16.8676 1.11979C14.8245 3.19366 11.6345 4.55167 9.30728 5.31693C8.03118 5.73208 6.8859 6.03102 6.04766 6.22609C5.62853 6.32364 5.2865 6.39513 5.04362 6.44217C4.92212 6.4657 4.82584 6.48302 4.75737 6.49441C4.72306 6.50011 4.69636 6.50422 4.67728 6.50685C4.66054 6.50916 4.65422 6.50965 4.65423 6.50975C4.65423 6.50976 4.65425 6.50976 4.6543 6.50976H4.64321L4.62971 6.51225C4.20228 6.59114 3.85 6.98253 3.85 7.42662V20.8967V20.8969V20.8971V20.8973V20.8975V20.8977V20.8979V20.8981V20.8983V20.8985V20.8987V20.8989V20.8991V20.8993V20.8995V20.8997V20.8999V20.9001V20.9003V20.9005V20.9007V20.901V20.9012V20.9014V20.9016V20.9018V20.902V20.9022V20.9025V20.9027V20.9029V20.9031V20.9033V20.9035V20.9038V20.904V20.9042V20.9044V20.9046V20.9049V20.9051V20.9053V20.9055V20.9058V20.906V20.9062V20.9064V20.9067V20.9069V20.9071V20.9074V20.9076V20.9078V20.908V20.9083V20.9085V20.9087V20.909V20.9092V20.9094V20.9097V20.9099V20.9102V20.9104V20.9106V20.9109V20.9111V20.9113V20.9116V20.9118V20.9121V20.9123V20.9126V20.9128V20.913V20.9133V20.9135V20.9138V20.914V20.9143V20.9145V20.9148V20.915V20.9153V20.9155V20.9158V20.916V20.9163V20.9165V20.9168V20.917V20.9173V20.9175V20.9178V20.918V20.9183V20.9185V20.9188V20.919V20.9193V20.9195V20.9198V20.9201V20.9203V20.9206V20.9208V20.9211V20.9214V20.9216V20.9219V20.9221V20.9224V20.9227V20.9229V20.9232V20.9235V20.9237V20.924V20.9242V20.9245V20.9248V20.925V20.9253V20.9256V20.9258V20.9261V20.9264V20.9266V20.9269V20.9272V20.9274V20.9277V20.928V20.9283V20.9285V20.9288V20.9291V20.9293V20.9296V20.9299V20.9302V20.9304V20.9307V20.931V20.9313V20.9315V20.9318V20.9321V20.9324V20.9326V20.9329V20.9332V20.9335V20.9337V20.934V20.9343V20.9346V20.9348V20.9351V20.9354V20.9357V20.936V20.9362V20.9365V20.9368V20.9371V20.9374V20.9376V20.9379V20.9382V20.9385V20.9388V20.9391V20.9393V20.9396V20.9399V20.9402V20.9405V20.9408V20.941V20.9413V20.9416V20.9419V20.9422V20.9425V20.9427V20.943V20.9433V20.9436V20.9439V20.9442V20.9445V20.9448V20.945V20.9453V20.9456V20.9459V20.9462V20.9465V20.9468V20.9471V20.9473V20.9476V20.9479V20.9482V20.9485V20.9488V20.9491V20.9494V20.9497V20.9499V20.9502V20.9505V20.9508V20.9511V20.9514V20.9517V20.952V20.9523V20.9526V20.9529V20.9531V20.9534V20.9537V20.954V20.9543V20.9546V20.9549V20.9552V20.9555V20.9558V20.9561V20.9564V20.9566V20.9569V20.9572V20.9575V20.9578V20.9581V20.9584V20.9587V20.959V20.9593V20.9596V20.9599V20.9602V20.9604V20.9607V20.961V20.9613V20.9616V20.9619V20.9622V20.9625V20.9628V20.9631V20.9634V20.9637V20.964V20.9643V20.9645V20.9648V20.9651V20.9654V20.9657V20.966V20.9663V20.9666V20.9669V20.9672V20.9675V20.9678V20.9681V20.9684V20.9686V20.9689V20.9692V20.9695V20.9698V20.9701V20.9704V20.9707V20.971V20.9713V20.9716V20.9719V20.9722V20.9724V20.9727V20.973V20.9733V20.9736V20.9739V20.9742V20.9745V20.9748V20.9751V20.9754V20.9756V20.9759V20.9762V20.9765V20.9768V20.9771V20.9774V20.9777V20.978V20.9783V20.9785V20.9788V20.9791V20.9794V20.9797V20.98V20.9803V20.9806V20.9809V20.9811V20.9814V20.9817V20.982V20.9823V20.9826V20.9829V20.9831V20.9834V20.9837V20.984V20.9843V20.9846V20.9849V20.9851V20.9854V20.9857V20.986V20.9863V20.9866V20.9868V20.9871V20.9874V20.9877V20.988V20.9883V20.9885V20.9888V20.9891V20.9894V20.9897V20.9899V20.9902V20.9905V20.9908V20.9911V20.9913V20.9916V20.9919V20.9922V20.9925V20.9927V20.993V20.9933V20.9936V20.9938V20.9941V20.9944V20.9947V20.9949V20.9952V20.9955V20.9958V20.996V20.9963V20.9966V20.9969V20.9971V20.9974V20.9977V20.998V20.9982V20.9985V20.9988V20.999V20.9993V20.9996V20.9998V21.0001V21.0004V21.0006V21.0009V21.0012V21.0014V21.0017V21.002V21.0022V21.0025V21.0028V21.003V21.0033V21.0036V21.0038V21.0041V21.0044V21.0046V21.0049V21.0051V21.0054V21.0057V21.0059V21.0062V21.0064V21.0067V21.0069V21.0072V21.0075V21.0077V21.008V21.0082V21.0085V21.0087V21.009V21.0092V21.0095V21.0097V21.01V21.0103V21.0105V21.0108V21.011V21.0112V21.0115V21.0117V21.012V21.0122V21.0125V21.0127V21.013V21.0132V21.0135V21.0137V21.014V21.0142V21.0144V21.0147V21.0149V21.0152V21.0154V21.0156V21.0159V21.0161V21.0164V21.0166V21.0168V21.0171V21.0173V21.0175V21.0178V21.018V21.0182V21.0185V21.0187V21.0189V21.0192V21.0194V21.0196V21.0199V21.0201V21.0203V21.0205V21.0208V21.021V21.0212V21.0214V21.0217V21.0219V21.0221V21.0223V21.0226V21.0228V21.023V21.0232V21.0234V21.0236V21.0239V21.0241V21.0243V21.0245V21.0247V21.0249V21.0252V21.0254V21.0256V21.0258V21.026V21.0262V21.0264V21.0266V21.0268V21.027V21.0273V21.0275V21.0277V21.0279V21.0281V21.0283V21.0285V21.0287V21.0289V21.0291V21.0293V21.0295V21.0297V21.0299V21.0301V21.0483L3.85435 21.0659C3.85569 21.0714 3.85749 21.0791 3.85982 21.0891C3.91904 21.3434 4.31822 23.0577 6.07613 25.4288C7.90205 27.8917 11.1891 31.0569 17.0709 34.0338L17.1029 34.05H17.132C17.1332 34.0502 17.1347 34.0506 17.1367 34.0511C17.1449 34.0532 17.1558 34.0566 17.1674 34.061C17.1791 34.0655 17.1892 34.0701 17.1964 34.0739C17.198 34.0748 17.1993 34.0756 17.2002 34.0762L17.2132 34.0894L17.235 34.1004C17.3332 34.1502 17.4302 34.1501 17.4926 34.15L17.5 34.15L17.5074 34.15C17.5665 34.1501 17.6567 34.1502 17.7495 34.1079L17.7591 34.1052C17.7735 34.1011 17.7935 34.0952 17.815 34.0879C17.836 34.0808 17.861 34.0716 17.8846 34.0607C17.8985 34.0542 17.9214 34.0432 17.9438 34.0264C29.6949 28.1073 31.11 21.4039 31.1491 21.0464L31.15 21.0382V21.0301V21.0299V21.0297V21.0295V21.0293V21.0291V21.0289V21.0287V21.0285V21.0283V21.0281V21.0279V21.0277V21.0275V21.0273V21.027V21.0268V21.0266V21.0264V21.0262V21.026V21.0258V21.0256V21.0254V21.0252V21.0249V21.0247V21.0245V21.0243V21.0241V21.0239V21.0236V21.0234V21.0232V21.023V21.0228V21.0226V21.0223V21.0221V21.0219V21.0217V21.0214V21.0212V21.021V21.0208V21.0205V21.0203V21.0201V21.0199V21.0196V21.0194V21.0192V21.0189V21.0187V21.0185V21.0182V21.018V21.0178V21.0175V21.0173V21.0171V21.0168V21.0166V21.0164V21.0161V21.0159V21.0156V21.0154V21.0152V21.0149V21.0147V21.0144V21.0142V21.014V21.0137V21.0135V21.0132V21.013V21.0127V21.0125V21.0122V21.012V21.0117V21.0115V21.0112V21.011V21.0108V21.0105V21.0103V21.01V21.0097V21.0095V21.0092V21.009V21.0087V21.0085V21.0082V21.008V21.0077V21.0075V21.0072V21.0069V21.0067V21.0064V21.0062V21.0059V21.0057V21.0054V21.0051V21.0049V21.0046V21.0044V21.0041V21.0038V21.0036V21.0033V21.003V21.0028V21.0025V21.0022V21.002V21.0017V21.0014V21.0012V21.0009V21.0006V21.0004V21.0001V20.9998V20.9996V20.9993V20.999V20.9988V20.9985V20.9982V20.998V20.9977V20.9974V20.9971V20.9969V20.9966V20.9963V20.996V20.9958V20.9955V20.9952V20.9949V20.9947V20.9944V20.9941V20.9938V20.9936V20.9933V20.993V20.9927V20.9925V20.9922V20.9919V20.9916V20.9913V20.9911V20.9908V20.9905V20.9902V20.9899V20.9897V20.9894V20.9891V20.9888V20.9885V20.9883V20.988V20.9877V20.9874V20.9871V20.9868V20.9866V20.9863V20.986V20.9857V20.9854V20.9851V20.9849V20.9846V20.9843V20.984V20.9837V20.9834V20.9831V20.9829V20.9826V20.9823V20.982V20.9817V20.9814V20.9811V20.9809V20.9806V20.9803V20.98V20.9797V20.9794V20.9791V20.9788V20.9785V20.9783V20.978V20.9777V20.9774V20.9771V20.9768V20.9765V20.9762V20.9759V20.9756V20.9754V20.9751V20.9748V20.9745V20.9742V20.9739V20.9736V20.9733V20.973V20.9727V20.9724V20.9722V20.9719V20.9716V20.9713V20.971V20.9707V20.9704V20.9701V20.9698V20.9695V20.9692V20.9689V20.9686V20.9684V20.9681V20.9678V20.9675V20.9672V20.9669V20.9666V20.9663V20.966V20.9657V20.9654V20.9651V20.9648V20.9645V20.9643V20.964V20.9637V20.9634V20.9631V20.9628V20.9625V20.9622V20.9619V20.9616V20.9613V20.961V20.9607V20.9604V20.9602V20.9599V20.9596V20.9593V20.959V20.9587V20.9584V20.9581V20.9578V20.9575V20.9572V20.9569V20.9566V20.9564V20.9561V20.9558V20.9555V20.9552V20.9549V20.9546V20.9543V20.954V20.9537V20.9534V20.9531V20.9529V20.9526V20.9523V20.952V20.9517V20.9514V20.9511V20.9508V20.9505V20.9502V20.9499V20.9497V20.9494V20.9491V20.9488V20.9485V20.9482V20.9479V20.9476V20.9473V20.9471V20.9468V20.9465V20.9462V20.9459V20.9456V20.9453V20.945V20.9448V20.9445V20.9442V20.9439V20.9436V20.9433V20.943V20.9427V20.9425V20.9422V20.9419V20.9416V20.9413V20.941V20.9408V20.9405V20.9402V20.9399V20.9396V20.9393V20.9391V20.9388V20.9385V20.9382V20.9379V20.9376V20.9374V20.9371V20.9368V20.9365V20.9362V20.936V20.9357V20.9354V20.9351V20.9348V20.9346V20.9343V20.934V20.9337V20.9335V20.9332V20.9329V20.9326V20.9324V20.9321V20.9318V20.9315V20.9313V20.931V20.9307V20.9304V20.9302V20.9299V20.9296V20.9293V20.9291V20.9288V20.9285V20.9283V20.928V20.9277V20.9274V20.9272V20.9269V20.9266V20.9264V20.9261V20.9258V20.9256V20.9253V20.925V20.9248V20.9245V20.9242V20.924V20.9237V20.9235V20.9232V20.9229V20.9227V20.9224V20.9221V20.9219V20.9216V20.9214V20.9211V20.9208V20.9206V20.9203V20.9201V20.9198V20.9195V20.9193V20.919V20.9188V20.9185V20.9183V20.918V20.9178V20.9175V20.9173V20.917V20.9168V20.9165V20.9163V20.916V20.9158V20.9155V20.9153V20.915V20.9148V20.9145V20.9143V20.914V20.9138V20.9135V20.9133V20.913V20.9128V20.9126V20.9123V20.9121V20.9118V20.9116V20.9113V20.9111V20.9109V20.9106V20.9104V20.9102V20.9099V20.9097V20.9094V20.9092V20.909V20.9087V20.9085V20.9083V20.908V20.9078V20.9076V20.9074V20.9071V20.9069V20.9067V20.9064V20.9062V20.906V20.9058V20.9055V20.9053V20.9051V20.9049V20.9046V20.9044V20.9042V20.904V20.9038V20.9035V20.9033V20.9031V20.9029V20.9027V20.9025V20.9022V20.902V20.9018V20.9016V20.9014V20.9012V20.901V20.9007V20.9005V20.9003V20.9001V20.8999V20.8997V20.8995V20.8993V20.8991V20.8989V20.8987V20.8985V20.8983V20.8981V20.8979V20.8977V20.8975V20.8973V20.8971V20.8969V20.8967V7.42662C31.15 6.99165 30.8396 6.5928 30.4031 6.51225ZM24.1285 6.74223C26.3192 7.54644 28.2922 8.0028 29.3062 8.21546V20.8115C29.128 21.5139 27.4304 27.0373 17.5002 32.1641C7.5886 27.0141 5.87716 21.4683 5.6938 20.8097V8.21736C6.71053 8.0189 8.68266 7.5623 10.8717 6.75464C13.1111 5.92842 15.5879 4.73106 17.5 3.05895C19.4122 4.73093 21.8892 5.92016 24.1285 6.74223Z" fill="#EF4824" stroke="#EF4824" stroke-width="0.3"/>
</svg>
