<svg width="194" height="50" viewBox="0 0 194 50" fill="none" xmlns="http://www.w3.org/2000/svg">
<path fill-rule="evenodd" clip-rule="evenodd" d="M34.2627 46.2863C34.2627 46.3455 34.2496 46.385 34.2234 46.4047C34.2037 46.4244 34.1578 46.4376 34.0989 46.4376L33.5154 46.431C33.463 46.431 33.4171 46.4244 33.3909 46.4047C33.3647 46.385 33.3516 46.3455 33.3516 46.2797L33.3778 38.5165C33.3778 38.4573 33.3974 38.4179 33.4237 38.3981C33.4499 38.3784 33.4892 38.3652 33.5417 38.3652L34.1251 38.3718C34.1906 38.3718 34.23 38.3784 34.2562 38.3981C34.2758 38.4179 34.289 38.4573 34.289 38.5165L34.2758 41.7797L38.5695 41.7929L38.576 38.5363C38.576 38.4705 38.5892 38.431 38.6154 38.4113C38.635 38.3981 38.6809 38.385 38.7399 38.385H39.3037C39.3627 38.385 39.4086 38.3981 39.4282 38.4179C39.4479 38.4376 39.461 38.4771 39.461 38.5363L39.4348 46.306C39.4348 46.3652 39.4217 46.4047 39.402 46.4244C39.3758 46.4442 39.3364 46.4508 39.2709 46.4508H38.7137C38.6482 46.4508 38.6088 46.4442 38.5892 46.4244C38.5629 46.4047 38.5498 46.3652 38.5498 46.2994L38.5629 42.5823L34.2758 42.5626L34.2627 46.2863ZM46.5209 45.9508C46.5209 46.0889 46.4685 46.181 46.3636 46.2271C46.0162 46.3718 45.6491 46.4705 45.2623 46.5231C44.869 46.5692 44.4954 46.5955 44.1348 46.5955C43.6432 46.5955 43.2433 46.5429 42.9287 46.431C42.6206 46.3192 42.3715 46.181 42.1879 46.0034C42.0044 45.8323 41.8733 45.635 41.8012 45.4047C41.7291 45.1744 41.6963 44.9376 41.6963 44.6942C41.6963 44.4113 41.7488 44.1415 41.8471 43.8915C41.952 43.6415 42.1027 43.4244 42.3059 43.2402C42.5092 43.056 42.7648 42.9113 43.0663 42.806C43.3744 42.7073 43.7415 42.6547 44.1611 42.6547L45.6884 42.6613V42.3521C45.6884 42.1679 45.6688 41.9902 45.6294 41.8258C45.5966 41.6613 45.5245 41.5231 45.4131 41.4113C45.3082 41.2994 45.1574 41.2073 44.9673 41.1416C44.7772 41.0758 44.5281 41.0429 44.2201 41.0429C43.971 41.0429 43.6956 41.0692 43.3941 41.1152C43.086 41.1613 42.8304 41.2205 42.614 41.2929C42.5616 41.306 42.5223 41.3126 42.4895 41.306C42.4567 41.306 42.437 41.2731 42.4239 41.2205L42.3059 40.7994C42.2863 40.7139 42.3191 40.6613 42.3977 40.6284C42.5354 40.5758 42.6861 40.5231 42.85 40.4837C43.0073 40.4376 43.1778 40.4047 43.3482 40.3718C43.5187 40.3389 43.6956 40.3192 43.8726 40.3126C44.0431 40.2994 44.2135 40.2929 44.3643 40.2929C45.105 40.2994 45.6556 40.4639 46.0096 40.7929C46.3636 41.1284 46.5406 41.6087 46.534 42.2468L46.5209 45.9508ZM45.6753 43.4113L44.1938 43.4047C44.0562 43.4047 43.8923 43.4179 43.6956 43.4376C43.5055 43.4573 43.322 43.5166 43.1516 43.6021C42.9811 43.6942 42.8369 43.8258 42.7124 43.9968C42.5944 44.1679 42.5354 44.4047 42.5354 44.7073C42.5354 44.9376 42.5747 45.1284 42.6665 45.2863C42.7517 45.4442 42.8697 45.5626 43.0205 45.6547C43.1712 45.7534 43.3351 45.8192 43.5318 45.8521C43.7219 45.885 43.9185 45.9047 44.1283 45.9047C44.1938 45.9047 44.2856 45.9047 44.4102 45.8981C44.5281 45.885 44.6593 45.8784 44.8035 45.8587C44.9477 45.8455 45.0984 45.8192 45.2427 45.7863C45.3934 45.7534 45.5311 45.7139 45.6622 45.6679L45.6753 43.4113ZM51.398 45.8981C51.6667 45.8981 51.929 45.8652 52.1846 45.7929C52.4403 45.7271 52.6566 45.6415 52.8336 45.5429C52.8926 45.5165 52.9385 45.5034 52.9647 45.5231C52.9909 45.5363 53.0171 45.5626 53.0368 45.6021L53.2203 46.0034C53.2597 46.0494 53.2728 46.0889 53.2531 46.1218C53.24 46.1547 53.2138 46.181 53.1744 46.2139C52.886 46.3652 52.5714 46.4705 52.2436 46.5297C51.9158 46.5955 51.5946 46.6218 51.28 46.6218C50.4213 46.6218 49.7788 46.3587 49.3397 45.8455C48.9005 45.3258 48.6841 44.556 48.6841 43.5231C48.6907 43.0231 48.7497 42.5758 48.8808 42.181C49.0053 41.7863 49.1889 41.4508 49.4249 41.1744C49.6543 40.8981 49.9427 40.6876 50.277 40.5429C50.6179 40.3916 50.9916 40.3192 51.4045 40.3192C51.7061 40.3192 51.988 40.3521 52.2633 40.4179C52.5386 40.4771 52.8139 40.5823 53.0761 40.7271C53.1679 40.7797 53.1875 40.8521 53.1351 40.9376L52.9253 41.3258C52.9122 41.3652 52.8926 41.3915 52.8663 41.4047C52.8401 41.4244 52.7942 41.4179 52.7352 41.385C52.5386 41.2994 52.3354 41.2271 52.1191 41.1613C51.9027 41.1021 51.6602 41.0692 51.4045 41.0692C51.0637 41.0692 50.7818 41.135 50.5458 41.2665C50.3098 41.3981 50.1197 41.5823 49.9624 41.8126C49.8116 42.0429 49.7002 42.306 49.6281 42.6021C49.5625 42.8981 49.5232 43.2073 49.5232 43.5297C49.5232 43.8587 49.5494 44.1679 49.6084 44.4573C49.674 44.7402 49.7723 44.9902 49.9165 45.2073C50.0607 45.4179 50.2574 45.5823 50.4999 45.7073C50.7359 45.8323 51.0374 45.8981 51.398 45.8981ZM57.4484 46.3323C57.4484 46.4113 57.4353 46.4573 57.4091 46.4837C57.3829 46.5034 57.337 46.5166 57.278 46.5166H56.7995C56.7273 46.5166 56.6815 46.5034 56.6487 46.4771C56.6225 46.4573 56.6094 46.4047 56.6094 46.3323L56.629 41.1876L54.7936 41.181C54.7149 41.181 54.669 41.1679 54.6428 41.1416C54.6231 41.1152 54.61 41.0758 54.61 41.0231V40.6415C54.61 40.5823 54.6231 40.5363 54.6494 40.5034C54.669 40.4705 54.7215 40.4573 54.7936 40.4573L59.4084 40.4771C59.4871 40.4771 59.533 40.4902 59.5526 40.5231C59.5723 40.5494 59.5788 40.5955 59.5788 40.6613V41.0363C59.5788 41.0955 59.5723 41.135 59.5526 41.1613C59.533 41.1876 59.4805 41.2008 59.4084 41.2008L57.4681 41.1942L57.4484 46.3323ZM66.0029 43.4902C66.0029 44.5231 65.7669 45.306 65.3081 45.8521C64.8492 46.3981 64.1937 46.6679 63.335 46.6613C62.4894 46.6613 61.8469 46.3916 61.4012 45.8587C60.9554 45.3192 60.7326 44.5363 60.7391 43.51C60.7391 43.0034 60.8047 42.5494 60.9358 42.1547C61.0669 41.76 61.2504 41.431 61.493 41.1679C61.729 40.9047 62.0108 40.7008 62.3255 40.5626C62.6467 40.431 63.0007 40.3587 63.394 40.3587C64.2461 40.3652 64.8951 40.6415 65.3409 41.1942C65.7866 41.7402 66.0095 42.51 66.0029 43.4902ZM65.1639 43.5297C65.1704 43.2139 65.1442 42.9047 65.0918 42.6152C65.0393 42.3126 64.9475 42.056 64.8164 41.8258C64.6853 41.5955 64.5084 41.4179 64.2724 41.2797C64.0429 41.1481 63.7479 41.0758 63.394 41.0758C63.0728 41.0758 62.7974 41.1415 62.568 41.2665C62.3386 41.3981 62.155 41.5758 62.0043 41.7929C61.8601 42.01 61.7486 42.2666 61.6831 42.5626C61.611 42.8521 61.5782 43.1613 61.5782 43.4837C61.5716 43.8455 61.6044 44.1744 61.6634 44.4771C61.7224 44.7797 61.8207 45.0363 61.9584 45.26C62.096 45.4837 62.2796 45.6613 62.509 45.7863C62.7384 45.9113 63.0203 45.9705 63.3546 45.9705C63.7021 45.9705 63.9905 45.9047 64.2265 45.76C64.4559 45.6218 64.646 45.431 64.7837 45.2008C64.9213 44.9705 65.0197 44.7139 65.0786 44.4179C65.1376 44.1284 65.1639 43.8323 65.1639 43.5297ZM72.4008 40.5166C72.5384 40.5231 72.6499 40.556 72.7285 40.6284C72.8072 40.7008 72.8465 40.8126 72.8465 40.9573L72.8269 46.4442C72.8269 46.5034 72.8138 46.5429 72.7875 46.5494C72.7613 46.5626 72.7154 46.5692 72.6564 46.5692H72.1517C72.0927 46.5692 72.0468 46.5626 72.0271 46.5429C72.0009 46.5297 71.9944 46.4902 71.9944 46.431L72.0009 44.01L70.3818 44.0034C70.231 44.0034 70.0868 44.01 69.9492 44.0297C69.818 44.0494 69.6935 44.0889 69.5821 44.1416C69.4706 44.2008 69.3723 44.2863 69.2936 44.3981C69.2084 44.51 69.1298 44.6613 69.0708 44.8521C68.9855 45.1152 68.9069 45.3718 68.8282 45.635C68.7496 45.8981 68.6709 46.1613 68.5922 46.431C68.5791 46.4837 68.5529 46.5165 68.5136 46.5297C68.4742 46.5494 68.4415 46.556 68.4087 46.556L67.8515 46.5494C67.7663 46.5494 67.7204 46.5165 67.7204 46.4508C67.7204 46.431 67.7269 46.4244 67.7269 46.4179C67.7335 46.4179 67.7335 46.4047 67.7335 46.3916L68.271 44.6942C68.33 44.4771 68.4218 44.2929 68.5332 44.1284C68.6512 43.9639 68.8413 43.8455 69.1101 43.7731C69.1035 43.7731 69.097 43.7665 69.097 43.7534C68.7233 43.6547 68.4546 43.4573 68.2972 43.1744C68.1399 42.8916 68.0547 42.5823 68.0613 42.2402C68.0613 42.0034 68.1006 41.7797 68.1858 41.5692C68.271 41.3587 68.3956 41.1744 68.5594 41.0165C68.7299 40.8587 68.9265 40.7402 69.1691 40.6481C69.4051 40.556 69.6738 40.51 69.9819 40.51L72.4008 40.5166ZM70.0409 41.2402C69.8443 41.2337 69.6738 41.2665 69.5296 41.3192C69.3854 41.3784 69.2674 41.4508 69.1756 41.5494C69.0839 41.6415 69.0118 41.7534 68.9659 41.8718C68.92 41.9968 68.9003 42.1218 68.8938 42.2534C68.8938 42.5626 68.9855 42.8192 69.1756 43.0165C69.3592 43.2073 69.6673 43.3126 70.1065 43.3126L72.0009 43.3192L72.0075 41.2468L70.0409 41.2402ZM83.5315 45.9179C83.6954 45.931 83.7871 45.9771 83.8199 46.0626C83.8527 46.1416 83.8658 46.2139 83.8658 46.2863L83.7282 48.2797C83.7216 48.3652 83.6823 48.4047 83.6167 48.4047H83.0989C83.0399 48.4047 83.0071 48.3587 82.994 48.2731L82.9481 46.6021L75.7177 46.5823C75.5538 46.5823 75.4358 46.5297 75.3506 46.431C75.2654 46.3258 75.2261 46.1942 75.2261 46.0231L75.2457 40.7008C75.2457 40.635 75.2589 40.5889 75.2916 40.5626C75.3178 40.5429 75.3637 40.5297 75.4293 40.5297H75.9013C75.9734 40.5297 76.0258 40.5429 76.0455 40.5692C76.0717 40.5889 76.0782 40.635 76.0782 40.7073L76.0651 45.8915L78.8183 45.8981L78.838 40.7139C78.838 40.6481 78.8511 40.6021 78.8773 40.5758C78.9035 40.556 78.956 40.5429 79.0346 40.5429H79.4869C79.5459 40.5429 79.5918 40.556 79.6246 40.5758C79.6574 40.6021 79.6705 40.6481 79.6705 40.7205L79.6574 45.9047L82.3974 45.9113L82.4171 40.7271C82.4171 40.6613 82.4302 40.6152 82.463 40.5889C82.4892 40.5692 82.5351 40.556 82.6007 40.556H83.0726C83.1316 40.556 83.1775 40.5692 83.2103 40.5889C83.2365 40.6152 83.2496 40.6613 83.2496 40.7271L83.2365 45.8915L83.5315 45.9179ZM90.4341 46.1021C90.4341 46.2402 90.3817 46.3323 90.2768 46.3784C89.9293 46.5231 89.5623 46.6218 89.1689 46.6744C88.7822 46.7271 88.4086 46.7534 88.048 46.7468C87.5564 46.7468 87.1565 46.6942 86.8419 46.5823C86.5272 46.4771 86.2847 46.3323 86.1011 46.1613C85.9176 45.9837 85.7865 45.7863 85.7144 45.556C85.6423 45.3323 85.6095 45.0889 85.6095 44.8455C85.6095 44.5626 85.6619 44.2929 85.7603 44.0429C85.8651 43.7929 86.0159 43.5758 86.2191 43.3916C86.4223 43.2073 86.678 43.0626 86.9795 42.9639C87.2876 42.8587 87.6547 42.806 88.0742 42.8126H89.6016V42.51C89.6016 42.3192 89.5819 42.1415 89.5426 41.9771C89.5033 41.8126 89.4312 41.6744 89.3263 41.5626C89.2214 41.4508 89.0706 41.3587 88.8805 41.2929C88.6904 41.2337 88.4413 41.1942 88.1332 41.1942C87.8841 41.1942 87.6023 41.2205 87.3007 41.2665C86.9992 41.3192 86.7435 41.3784 86.5272 41.4442C86.4748 41.4573 86.4354 41.4639 86.4027 41.4639C86.3699 41.4573 86.3502 41.431 86.3306 41.3718L86.2191 40.9573C86.1994 40.8718 86.2257 40.8126 86.3109 40.7797C86.4485 40.7271 86.5993 40.681 86.7632 40.635C86.9205 40.5955 87.091 40.556 87.2614 40.5297C87.4318 40.4968 87.6088 40.4771 87.7793 40.4639C87.9562 40.4508 88.1201 40.4508 88.2774 40.4508C89.0182 40.4508 89.5688 40.6152 89.9228 40.9508C90.2768 41.2797 90.4538 41.7666 90.4472 42.4047L90.4341 46.1021ZM89.5819 43.5626L88.107 43.556C87.9694 43.556 87.7989 43.5692 87.6088 43.5889C87.4187 43.6152 87.2352 43.6679 87.0647 43.76C86.8943 43.8455 86.7501 43.9771 86.6255 44.1481C86.5075 44.3258 86.4485 44.556 86.4485 44.8587C86.4485 45.0955 86.4879 45.2863 86.5797 45.4376C86.6649 45.5955 86.7829 45.7205 86.9336 45.8126C87.0778 45.9047 87.2483 45.9705 87.4384 46.0034C87.635 46.0429 87.8317 46.056 88.0349 46.056C88.107 46.056 88.1988 46.056 88.3168 46.0494C88.4348 46.0429 88.5724 46.0297 88.7166 46.0166C88.8609 45.9968 89.0051 45.9771 89.1558 45.9442C89.3066 45.9047 89.4443 45.8652 89.5754 45.8192L89.5819 43.5626ZM97.0614 40.6021C97.1991 40.6087 97.3039 40.6415 97.3892 40.7139C97.4678 40.7863 97.5071 40.8981 97.5071 41.0429L97.4875 46.5297C97.4875 46.5889 97.4744 46.6284 97.4481 46.6415C97.4219 46.6481 97.376 46.6547 97.317 46.6547H96.8123C96.7467 46.6547 96.7074 46.6481 96.6812 46.6284C96.6615 46.6152 96.6484 46.5758 96.6484 46.5166L96.6615 44.0955L95.0424 44.0889C94.8851 44.0889 94.7409 44.0955 94.6097 44.1152C94.4786 44.135 94.3541 44.1744 94.2427 44.2337C94.1312 44.2863 94.0329 44.3718 93.9477 44.4837C93.8625 44.5955 93.7904 44.7468 93.7314 44.9376C93.6461 45.2008 93.5609 45.4573 93.4888 45.7205C93.4101 45.9837 93.3315 46.2468 93.2528 46.5166C93.2397 46.5692 93.2135 46.6021 93.1742 46.6152C93.1348 46.635 93.1021 46.6415 93.0693 46.6415H92.5055C92.4203 46.635 92.381 46.6021 92.381 46.5363C92.381 46.5166 92.381 46.51 92.3875 46.5034C92.3941 46.5034 92.3941 46.4902 92.3941 46.4771L92.9251 44.7863C92.9906 44.5692 93.0758 44.3784 93.1938 44.2139C93.3053 44.0494 93.5019 43.931 93.7707 43.8652C93.7576 43.8652 93.7576 43.8521 93.7576 43.8389C93.3839 43.7402 93.1152 43.5429 92.9578 43.26C92.794 42.9771 92.7153 42.6679 92.7153 42.3258C92.7153 42.0889 92.7612 41.8652 92.8464 41.6547C92.9316 41.4442 93.0562 41.26 93.2201 41.1021C93.3839 40.9508 93.5871 40.8258 93.8231 40.7337C94.0591 40.6415 94.3344 40.5955 94.6425 40.5955L97.0614 40.6021ZM94.7015 41.3258C94.5049 41.3192 94.3344 41.3521 94.1902 41.4047C94.0395 41.4639 93.9215 41.5363 93.8297 41.635C93.7379 41.7337 93.6724 41.8389 93.6265 41.9639C93.5806 42.0823 93.5544 42.2073 93.5544 42.3389C93.5544 42.6547 93.6461 42.9047 93.8297 43.1021C94.0198 43.2994 94.3279 43.3981 94.7671 43.3981L96.6615 43.4047L96.6681 41.3323L94.7015 41.3258ZM108.356 43.5034C108.782 43.5889 109.09 43.7665 109.293 44.0297C109.497 44.2929 109.595 44.6021 109.595 44.9442C109.595 45.2008 109.542 45.4376 109.444 45.6679C109.339 45.8916 109.188 46.0889 108.979 46.26C108.775 46.4244 108.513 46.5626 108.205 46.6613C107.897 46.76 107.53 46.806 107.117 46.806C106.947 46.806 106.757 46.7929 106.566 46.7797C106.37 46.7665 106.173 46.7337 105.976 46.7008C105.786 46.6679 105.596 46.6218 105.419 46.5626C105.249 46.51 105.091 46.4442 104.954 46.3652C104.901 46.3323 104.882 46.2666 104.921 46.1876L105.105 45.7929C105.137 45.7271 105.177 45.7008 105.209 45.7008C105.229 45.7008 105.262 45.7205 105.308 45.7402C105.504 45.8258 105.76 45.9047 106.075 45.9902C106.383 46.0692 106.691 46.1087 107.006 46.1152C107.635 46.1152 108.087 45.9968 108.369 45.7665C108.651 45.5363 108.789 45.2468 108.789 44.9047C108.789 44.5889 108.651 44.3389 108.369 44.1416C108.087 43.9442 107.622 43.8455 106.979 43.8455C106.874 43.8455 106.796 43.8258 106.737 43.7929C106.684 43.76 106.658 43.6876 106.658 43.5955V43.4113C106.665 43.2337 106.763 43.1481 106.973 43.1547C107.543 43.1547 107.95 43.0626 108.192 42.885C108.428 42.7008 108.546 42.4639 108.546 42.1744C108.546 41.8652 108.422 41.635 108.172 41.4837C107.917 41.3323 107.576 41.2534 107.137 41.2534C106.868 41.2534 106.599 41.2863 106.317 41.3521C106.042 41.4179 105.799 41.4968 105.603 41.5823C105.557 41.5955 105.524 41.6021 105.511 41.6021C105.452 41.6021 105.413 41.5758 105.393 41.5231L105.249 41.1547C105.229 41.1021 105.209 41.0692 105.209 41.0363C105.209 41.0034 105.236 40.9705 105.295 40.9442C105.858 40.6613 106.507 40.5231 107.235 40.5231C107.891 40.5297 108.415 40.6613 108.802 40.931C109.195 41.1942 109.385 41.5823 109.385 42.0889C109.385 42.3784 109.293 42.6481 109.123 42.8981C108.952 43.1481 108.69 43.3389 108.349 43.4705L108.356 43.5034ZM115.632 43.4705C115.835 43.5297 116.006 43.6152 116.144 43.7205C116.281 43.8258 116.393 43.9442 116.478 44.0758C116.563 44.2139 116.622 44.3587 116.655 44.51C116.688 44.6613 116.701 44.8126 116.701 44.9573C116.701 45.2205 116.655 45.4573 116.55 45.6744C116.452 45.885 116.314 46.0758 116.137 46.2337C115.96 46.385 115.75 46.51 115.508 46.5889C115.272 46.6744 115.003 46.7139 114.715 46.7139L112.165 46.7073C111.856 46.7073 111.706 46.5626 111.706 46.2797L111.725 41.0823C111.725 40.7994 111.883 40.6547 112.184 40.6613L114.642 40.6679C115.167 40.6679 115.606 40.7929 115.94 41.0363C116.281 41.2797 116.452 41.6547 116.452 42.1679C116.445 42.4244 116.38 42.6679 116.248 42.9047C116.111 43.135 115.908 43.306 115.639 43.4113L115.632 43.4705ZM112.558 43.1284L114.577 43.135C114.669 43.135 114.773 43.1218 114.891 43.0955C115.009 43.0692 115.121 43.0165 115.226 42.9508C115.331 42.885 115.416 42.7929 115.481 42.681C115.554 42.5626 115.586 42.4179 115.586 42.2402C115.586 42.0034 115.508 41.806 115.344 41.6415C115.18 41.4771 114.95 41.3915 114.662 41.3915L112.564 41.385L112.558 43.1284ZM115.842 44.8981C115.842 44.5758 115.737 44.3192 115.521 44.1218C115.304 43.9244 114.977 43.8258 114.538 43.8258L112.551 43.8192L112.545 46.0429L114.531 46.0494C114.806 46.0494 115.029 46.01 115.2 45.931C115.377 45.8587 115.508 45.76 115.599 45.6481C115.691 45.5297 115.757 45.4047 115.79 45.2731C115.822 45.1415 115.842 45.0165 115.842 44.8981ZM121.106 47.7534C120.929 48.2731 120.712 48.635 120.457 48.8389C120.201 49.0429 119.867 49.1416 119.46 49.1416C119.356 49.1416 119.224 49.135 119.067 49.1218C118.91 49.1087 118.733 49.0692 118.543 49.01C118.438 48.9771 118.399 48.9244 118.418 48.8389L118.536 48.4113C118.549 48.3587 118.569 48.3258 118.595 48.3192C118.628 48.3126 118.661 48.3192 118.707 48.3323C118.864 48.3718 118.988 48.3981 119.067 48.4047C119.146 48.4179 119.238 48.4244 119.329 48.4244C119.447 48.4244 119.559 48.4179 119.657 48.3981C119.762 48.3784 119.847 48.3389 119.932 48.2863C120.011 48.2271 120.083 48.1481 120.155 48.0429C120.221 47.9376 120.28 47.7994 120.339 47.635L120.686 46.6876H120.49C120.411 46.6876 120.332 46.6744 120.26 46.6415C120.195 46.6152 120.136 46.5166 120.077 46.3521L118.261 40.7929C118.241 40.7205 118.267 40.681 118.346 40.681H118.975C119.028 40.681 119.061 40.6876 119.08 40.7073C119.093 40.7205 119.113 40.7468 119.126 40.7863C119.179 40.9573 119.257 41.2008 119.356 41.51C119.46 41.8258 119.565 42.1547 119.683 42.4968C119.795 42.8389 119.9 43.1679 119.998 43.4837C120.096 43.7994 120.175 44.0429 120.234 44.2139C120.26 44.2731 120.293 44.3915 120.345 44.5758C120.391 44.7534 120.45 44.9508 120.509 45.1547C120.568 45.3652 120.627 45.5626 120.68 45.7468C120.732 45.931 120.771 46.056 120.791 46.1152H120.85C120.896 45.9771 120.955 45.806 121.014 45.5955C121.086 45.3916 121.152 45.1876 121.217 44.9837C121.283 44.7797 121.335 44.5955 121.388 44.4376C121.44 44.2731 121.473 44.1744 121.486 44.135C121.512 44.0823 121.558 43.9442 121.63 43.7271C121.702 43.51 121.794 43.2402 121.906 42.9244C122.01 42.6152 122.135 42.2731 122.266 41.9047C122.397 41.5363 122.528 41.1679 122.659 40.8126C122.672 40.7731 122.686 40.7402 122.705 40.7205C122.718 40.7073 122.751 40.6942 122.81 40.6942H123.407C123.485 40.6942 123.518 40.7402 123.498 40.8126L121.106 47.7534ZM126.062 46.6087C126.062 46.6679 126.055 46.7073 126.029 46.7271C126.009 46.7468 125.963 46.7534 125.904 46.7534H125.399C125.34 46.7534 125.295 46.7402 125.268 46.7271C125.242 46.7073 125.229 46.6613 125.229 46.6021L125.249 40.8521C125.249 40.7929 125.262 40.7534 125.288 40.7337C125.314 40.7139 125.36 40.7073 125.419 40.7073H125.924C125.983 40.7073 126.029 40.7139 126.048 40.7337C126.075 40.7534 126.088 40.7929 126.088 40.8587L126.075 43.1744H127.268C127.392 43.1744 127.51 43.1679 127.622 43.1415C127.733 43.1218 127.831 43.0758 127.93 43.0165C128.028 42.9573 128.113 42.8718 128.192 42.7534C128.264 42.6416 128.33 42.4968 128.389 42.3192L128.847 40.8455C128.867 40.7797 128.887 40.7468 128.913 40.7337C128.939 40.7205 128.972 40.7139 129.011 40.7139L129.529 40.7205C129.588 40.7205 129.628 40.7337 129.634 40.7731C129.647 40.806 129.654 40.8455 129.641 40.8784L129.201 42.3981C129.129 42.6416 129.038 42.8587 128.926 43.056C128.815 43.2534 128.657 43.3916 128.448 43.4837L128.441 43.51C128.729 43.5955 128.939 43.7337 129.064 43.9244C129.188 44.1152 129.293 44.3455 129.365 44.5955L129.942 46.5955C129.955 46.635 129.949 46.6744 129.942 46.7139C129.936 46.7468 129.896 46.7666 129.831 46.7666H129.267C129.234 46.7666 129.201 46.76 129.175 46.7468C129.142 46.7402 129.123 46.7073 129.103 46.6481L128.552 44.7271C128.454 44.3981 128.297 44.181 128.081 44.056C127.871 43.931 127.641 43.8718 127.392 43.8652H126.075L126.062 46.6087ZM136.923 43.7402C136.923 44.7666 136.687 45.556 136.229 46.1021C135.77 46.6415 135.114 46.9113 134.256 46.9113C133.41 46.9047 132.767 46.6415 132.322 46.1021C131.876 45.5692 131.653 44.7863 131.66 43.7534C131.66 43.2468 131.725 42.7994 131.856 42.4047C131.987 42.01 132.171 41.681 132.413 41.4113C132.649 41.1481 132.931 40.9508 133.246 40.8126C133.567 40.6744 133.921 40.6087 134.314 40.6087C135.167 40.6087 135.822 40.885 136.261 41.4376C136.707 41.9902 136.93 42.76 136.923 43.7402ZM136.091 43.7797C136.091 43.4639 136.065 43.1547 136.012 42.8587C135.96 42.5626 135.868 42.2994 135.737 42.0758C135.606 41.8455 135.429 41.6613 135.193 41.5297C134.963 41.3916 134.668 41.3258 134.321 41.3258C133.993 41.3192 133.718 41.385 133.489 41.5166C133.259 41.6481 133.076 41.8192 132.925 42.0429C132.781 42.26 132.676 42.5165 132.604 42.806C132.531 43.0955 132.499 43.4047 132.499 43.7271C132.492 44.0889 132.525 44.4244 132.584 44.7205C132.643 45.0231 132.741 45.2863 132.879 45.51C133.017 45.7337 133.2 45.9113 133.43 46.0297C133.659 46.1547 133.941 46.2205 134.275 46.2205C134.623 46.2205 134.911 46.1481 135.147 46.01C135.376 45.8652 135.567 45.681 135.704 45.4508C135.842 45.2205 135.94 44.9573 135.999 44.6679C136.058 44.3718 136.084 44.0758 136.091 43.7797ZM139.1 40.9047C139.1 40.7929 139.152 40.7402 139.264 40.7402H139.775C139.886 40.7402 139.939 40.7994 139.939 40.9047L139.919 45.6087L139.959 45.6152C139.985 45.5692 140.037 45.4902 140.109 45.3784C140.181 45.2731 140.26 45.1481 140.345 45.0231C140.424 44.8981 140.503 44.7797 140.575 44.6613C140.647 44.5494 140.699 44.4705 140.732 44.431C140.784 44.3521 140.87 44.2205 140.981 44.0494C141.099 43.8784 141.224 43.681 141.368 43.4639C141.512 43.2468 141.663 43.0166 141.827 42.7731C141.984 42.5297 142.141 42.2994 142.286 42.0823C142.43 41.8652 142.567 41.6613 142.685 41.4837C142.803 41.306 142.902 41.1744 142.967 41.0758C143.039 40.9639 143.098 40.8784 143.157 40.8323C143.216 40.7863 143.315 40.7665 143.452 40.7665H143.702C143.964 40.7665 144.095 40.9047 144.088 41.1744L144.069 46.6679C144.069 46.7271 144.062 46.7731 144.036 46.7863C144.016 46.806 143.97 46.8192 143.911 46.8192H143.393C143.334 46.8126 143.289 46.806 143.269 46.7863C143.243 46.7665 143.236 46.7271 143.236 46.6679L143.249 41.9968H143.19C143.171 42.0297 143.125 42.0955 143.066 42.1942C143.007 42.2929 142.935 42.4047 142.862 42.5166C142.79 42.6284 142.725 42.7402 142.659 42.8389C142.594 42.9376 142.548 43.0034 142.522 43.0363L140.194 46.4968C140.116 46.6152 140.044 46.7008 139.978 46.7402C139.906 46.7797 139.814 46.806 139.709 46.806L139.493 46.7994C139.218 46.7994 139.08 46.6679 139.08 46.3981L139.1 40.9047ZM149.405 43.6481C149.824 43.7337 150.132 43.9047 150.335 44.1744C150.539 44.4376 150.637 44.7468 150.637 45.0889C150.637 45.3455 150.584 45.5823 150.486 45.8126C150.388 46.0363 150.23 46.2337 150.021 46.3981C149.818 46.5692 149.555 46.7008 149.247 46.7994C148.939 46.8981 148.579 46.9508 148.166 46.9508C147.989 46.9442 147.805 46.9376 147.608 46.9244C147.412 46.9047 147.215 46.8784 147.025 46.8455C146.828 46.806 146.638 46.76 146.468 46.7073C146.291 46.6547 146.133 46.5823 145.996 46.5034C145.943 46.4771 145.924 46.4113 145.963 46.3323L146.147 45.9376C146.179 45.8718 146.219 45.8455 146.251 45.8455C146.271 45.8455 146.31 45.8587 146.356 45.8784C146.553 45.9705 146.809 46.0494 147.117 46.135C147.425 46.2139 147.74 46.2534 148.054 46.2534C148.677 46.26 149.129 46.1415 149.411 45.9113C149.693 45.681 149.831 45.3915 149.831 45.0494C149.837 44.7337 149.693 44.4771 149.411 44.2797C149.129 44.0889 148.664 43.9902 148.021 43.9837C147.917 43.9837 147.838 43.9705 147.785 43.931C147.733 43.8981 147.707 43.8323 147.707 43.7337V43.556C147.707 43.3784 147.812 43.2929 148.015 43.2929C148.592 43.2994 148.992 43.2073 149.234 43.0231C149.47 42.8455 149.588 42.6087 149.588 42.3126C149.595 42.0034 149.464 41.7731 149.214 41.6218C148.965 41.4705 148.618 41.3981 148.185 41.3915C147.917 41.3915 147.641 41.4244 147.359 41.4968C147.084 41.5626 146.841 41.6415 146.645 41.7205C146.599 41.7402 146.566 41.7468 146.553 41.7468C146.501 41.7468 146.461 41.7205 146.435 41.6679L146.291 41.2929C146.271 41.2468 146.258 41.2139 146.258 41.181C146.258 41.1481 146.284 41.1152 146.337 41.0889C146.9 40.806 147.549 40.6679 148.277 40.6679C148.933 40.6679 149.457 40.806 149.85 41.0692C150.237 41.3389 150.427 41.7271 150.427 42.2337C150.427 42.5231 150.342 42.7929 150.165 43.0429C149.994 43.2929 149.739 43.4837 149.391 43.6087L149.405 43.6481ZM157.795 43.8126C157.795 44.8455 157.559 45.6284 157.1 46.1744C156.641 46.7139 155.986 46.9837 155.127 46.9837C154.282 46.9837 153.639 46.7139 153.193 46.1744C152.748 45.6415 152.525 44.8587 152.531 43.8258C152.531 43.3192 152.597 42.8718 152.728 42.4771C152.859 42.0823 153.043 41.7534 153.285 41.4837C153.521 41.2205 153.803 41.0231 154.118 40.885C154.439 40.7468 154.799 40.681 155.186 40.681C156.038 40.681 156.694 40.9639 157.133 41.51C157.579 42.0626 157.802 42.8323 157.795 43.8126ZM156.963 43.8521C156.963 43.5363 156.936 43.2271 156.884 42.931C156.832 42.635 156.74 42.3718 156.609 42.1481C156.478 41.9179 156.301 41.7337 156.065 41.6021C155.835 41.4639 155.54 41.3981 155.193 41.3981C154.865 41.3916 154.59 41.4573 154.36 41.5889C154.131 41.7205 153.947 41.8916 153.797 42.1152C153.652 42.3323 153.547 42.5889 153.475 42.8784C153.403 43.1744 153.37 43.4837 153.37 43.806C153.364 44.1613 153.397 44.4968 153.456 44.7994C153.515 45.0955 153.613 45.3587 153.751 45.5823C153.888 45.806 154.072 45.9837 154.301 46.1021C154.531 46.2271 154.813 46.2929 155.147 46.2929C155.494 46.2929 155.783 46.2205 156.019 46.0823C156.248 45.9442 156.438 45.7534 156.576 45.5231C156.714 45.2929 156.812 45.0297 156.871 44.7402C156.93 44.4442 156.956 44.1481 156.963 43.8521ZM160.83 41.3521C160.843 41.1679 160.889 41.0297 160.981 40.9508C161.073 40.8718 161.197 40.8258 161.348 40.8323L164.357 40.8389C164.554 40.8389 164.685 40.885 164.75 40.9771C164.816 41.0692 164.849 41.1942 164.849 41.3652L164.829 46.7534C164.829 46.8126 164.816 46.8521 164.79 46.8718C164.763 46.8915 164.711 46.9047 164.645 46.9047L164.173 46.8981C164.114 46.8981 164.068 46.8915 164.036 46.8718C164.003 46.8521 163.99 46.8126 163.99 46.7468L164.009 41.5889L161.578 41.5823L161.505 42.51C161.446 43.2731 161.374 43.9113 161.315 44.431C161.25 44.9508 161.158 45.3784 161.033 45.7271C160.909 46.0692 160.738 46.3455 160.522 46.5429C160.299 46.7402 160.011 46.8981 159.644 47.0231C159.598 47.0363 159.552 47.0494 159.506 47.0494C159.467 47.056 159.434 47.0297 159.414 46.9639L159.29 46.5692C159.27 46.51 159.27 46.4639 159.29 46.4376C159.303 46.4113 159.342 46.3784 159.401 46.3521C159.637 46.2534 159.834 46.1284 159.985 45.9771C160.135 45.8192 160.253 45.6087 160.352 45.3455C160.45 45.0758 160.522 44.7271 160.581 44.2929C160.634 43.8652 160.686 43.3192 160.732 42.6613L160.83 41.3521ZM171.443 40.8652C171.581 40.8652 171.692 40.9047 171.771 40.9771C171.849 41.0494 171.889 41.1613 171.889 41.306L171.869 46.7863C171.869 46.8521 171.856 46.885 171.83 46.8981C171.804 46.9113 171.758 46.9179 171.699 46.9179L171.194 46.9113C171.128 46.9113 171.089 46.9047 171.069 46.8916C171.043 46.8718 171.03 46.8323 171.03 46.7731L171.043 44.3521L169.424 44.3455C169.273 44.3455 169.129 44.3587 168.991 44.3784C168.86 44.3981 168.736 44.431 168.624 44.4902C168.513 44.5494 168.415 44.6284 168.329 44.7402C168.244 44.8521 168.172 45.0034 168.113 45.1942C168.028 45.4573 167.943 45.7205 167.87 45.9771C167.792 46.2402 167.713 46.5034 167.634 46.7731C167.621 46.8258 167.595 46.8652 167.556 46.8784C167.516 46.8915 167.484 46.8981 167.451 46.8981H166.887C166.809 46.8981 166.763 46.8652 166.763 46.7929C166.763 46.7797 166.769 46.7666 166.769 46.7666C166.776 46.76 166.776 46.7534 166.776 46.7337L167.307 45.0429C167.379 44.8258 167.458 44.635 167.576 44.4705C167.687 44.306 167.884 44.1876 168.152 44.1218C168.139 44.1218 168.139 44.1152 168.139 44.0955C167.766 43.9968 167.497 43.806 167.34 43.5165C167.176 43.2337 167.097 42.9244 167.097 42.5889C167.104 42.3521 167.143 42.1218 167.228 41.9113C167.313 41.7008 167.438 41.5231 167.602 41.3652C167.766 41.2073 167.969 41.0823 168.205 40.9902C168.447 40.8981 168.716 40.8521 169.024 40.8587L171.443 40.8652ZM169.083 41.5823C168.887 41.5823 168.716 41.6087 168.572 41.6679C168.428 41.7205 168.303 41.7994 168.211 41.8916C168.12 41.9902 168.054 42.1021 168.008 42.2205C167.962 42.3455 167.936 42.4705 167.936 42.5955C167.936 42.9113 168.028 43.1679 168.211 43.3587C168.401 43.556 168.71 43.6547 169.149 43.6547L171.043 43.6613L171.05 41.5889L169.083 41.5823ZM179.191 46.2271L179.486 46.2534C179.65 46.2666 179.742 46.3126 179.775 46.3981C179.801 46.4771 179.821 46.5494 179.821 46.6218L179.696 48.6152C179.689 48.6942 179.65 48.7402 179.585 48.7402H179.054C178.995 48.7402 178.955 48.6942 178.949 48.6087L178.896 46.9376L174.753 46.9244C174.596 46.9244 174.472 46.8718 174.393 46.7731C174.308 46.6744 174.268 46.5429 174.268 46.3718L174.281 41.0494C174.281 40.9771 174.301 40.931 174.327 40.9113C174.36 40.885 174.406 40.8718 174.472 40.8784H174.937C175.016 40.8784 175.068 40.8915 175.088 40.9113C175.114 40.9376 175.121 40.9837 175.121 41.0494L175.101 46.2337L178.352 46.2468L178.372 41.0626C178.372 40.9902 178.385 40.9442 178.418 40.9244C178.444 40.8981 178.496 40.8916 178.562 40.8916H179.027C179.086 40.8916 179.132 40.9047 179.159 40.9244C179.191 40.9508 179.204 40.9968 179.204 41.0626L179.191 46.2271ZM181.833 41.0494C181.833 40.9442 181.885 40.8916 181.99 40.8916H182.508C182.613 40.8916 182.666 40.9442 182.666 41.056L182.652 45.7534L182.685 45.7665C182.718 45.7205 182.77 45.6416 182.843 45.5297C182.915 45.4179 182.993 45.2994 183.072 45.1744C183.151 45.0494 183.229 44.9244 183.301 44.8126C183.373 44.6942 183.432 44.6218 183.459 44.5823C183.518 44.5034 183.596 44.3718 183.714 44.1942C183.826 44.0231 183.957 43.8258 184.101 43.6087C184.239 43.3915 184.396 43.1613 184.553 42.9179C184.717 42.681 184.868 42.4508 185.019 42.2337C185.163 42.01 185.294 41.8126 185.412 41.635C185.53 41.4508 185.635 41.3192 185.694 41.2271C185.773 41.1152 185.832 41.0297 185.884 40.9837C185.943 40.9376 186.041 40.9179 186.179 40.9179H186.435C186.69 40.9179 186.822 41.056 186.822 41.3192L186.802 46.8192C186.802 46.8784 186.789 46.9179 186.769 46.9376C186.743 46.9573 186.704 46.9639 186.638 46.9639H186.127C186.061 46.9639 186.022 46.9573 185.996 46.9376C185.976 46.9179 185.963 46.8784 185.963 46.8126L185.982 42.1481H185.923C185.897 42.181 185.858 42.2468 185.799 42.3455C185.733 42.4442 185.668 42.5494 185.596 42.6679C185.524 42.7797 185.451 42.885 185.386 42.9902C185.32 43.0889 185.274 43.1481 185.255 43.181L182.921 46.6415C182.843 46.76 182.777 46.8455 182.705 46.8916C182.639 46.931 182.548 46.9508 182.443 46.9508H182.226C181.951 46.9508 181.813 46.8126 181.813 46.5494L181.833 41.0494ZM193.436 40.9442C193.573 40.9442 193.685 40.9771 193.763 41.0494C193.849 41.1284 193.888 41.2337 193.888 41.3784L193.868 46.8652C193.868 46.9244 193.849 46.9639 193.822 46.9771C193.796 46.9837 193.757 46.9902 193.691 46.9902H193.187C193.128 46.9902 193.088 46.9837 193.062 46.9639C193.042 46.9508 193.029 46.9113 193.029 46.8521L193.036 44.431L191.417 44.4244C191.266 44.4244 191.122 44.431 190.991 44.4508C190.853 44.4705 190.735 44.51 190.624 44.5692C190.512 44.6218 190.414 44.7073 190.329 44.8192C190.243 44.931 190.171 45.0823 190.106 45.2731C190.02 45.5363 189.942 45.7929 189.863 46.056C189.784 46.3192 189.712 46.5823 189.634 46.8521C189.614 46.9047 189.588 46.9376 189.548 46.9508C189.516 46.9705 189.476 46.9771 189.45 46.9771H188.886C188.801 46.9771 188.762 46.9376 188.762 46.8718C188.762 46.8521 188.762 46.8455 188.768 46.8389C188.768 46.8389 188.768 46.8258 188.768 46.8126L189.306 45.1218C189.371 44.9047 189.457 44.7139 189.568 44.5494C189.686 44.385 189.876 44.2665 190.145 44.2008C190.138 44.2008 190.132 44.1876 190.132 44.1744C189.758 44.0758 189.496 43.8784 189.332 43.5955C189.175 43.3126 189.096 43.0034 189.096 42.6613C189.096 42.4244 189.142 42.2008 189.227 41.9902C189.306 41.7797 189.437 41.5955 189.601 41.4376C189.765 41.2863 189.968 41.1613 190.204 41.0692C190.44 40.9771 190.715 40.931 191.017 40.931L193.436 40.9442ZM191.082 41.6613C190.886 41.6613 190.709 41.6876 190.565 41.7468C190.42 41.7994 190.302 41.8718 190.211 41.9705C190.119 42.0626 190.047 42.1744 190.001 42.2994C189.955 42.4179 189.935 42.5429 189.935 42.6744C189.935 42.9902 190.027 43.2402 190.211 43.4376C190.394 43.635 190.709 43.7337 191.141 43.7337L193.042 43.7402L193.049 41.6679L191.082 41.6613Z" fill="#7A7A7A"/>
<path fill-rule="evenodd" clip-rule="evenodd" d="M14.2648 48.9375L14.1992 49.056C14.9858 49.2731 14.9858 49.2731 15.9953 49.3849C16.6574 48.7336 16.9917 48.4047 17.6669 47.7402C19.6138 45.7599 21.2657 43.5033 22.721 41.1547C25.8347 36.1218 27.4145 30.7402 27.4276 24.2599C27.4407 17.3126 27.5587 11.1744 27.5783 3.70071C27.5849 2.02966 26.346 1.11518 25.5004 0.825709C25.1988 0.727025 25.0743 0.575709 24.0517 0.463867C25.3365 0.641499 25.8674 1.8915 25.8609 3.37834C25.8412 10.852 25.7232 16.9836 25.7101 23.9376C25.697 30.4112 24.1172 35.7994 21.0035 40.8257C19.5482 43.181 17.8963 45.4375 15.956 47.4112C15.2808 48.0757 14.9465 48.4047 14.291 49.0494L14.2648 48.9375Z" fill="#75B139"/>
<path fill-rule="evenodd" clip-rule="evenodd" d="M13.2543 1.77966C10.7044 2.14808 8.16097 2.53624 5.61755 2.9244C4.66705 3.12177 3.68378 4.60861 3.29702 6.1744C1.87455 12.4047 0.98304 18.6481 0.609395 25.0297C0.60284 30.6349 2.22197 35.8455 5.44712 40.3389C7.26946 42.8718 9.36712 45.0889 11.7598 47.1481C12.7299 47.9244 13.2347 48.306 14.277 49.0626C14.2835 49.056 14.2835 49.056 14.2901 49.0494C13.1101 44.6612 10.7699 34.3783 10.783 21.9902C10.7962 13.0165 12.2907 5.61519 13.2543 1.77966Z" fill="#75B139"/>
<path fill-rule="evenodd" clip-rule="evenodd" d="M25.8582 3.37834C25.8648 1.70071 25.1896 0.325709 23.5115 0.44413C20.0766 0.825709 16.6613 1.28624 13.2526 1.77966C12.289 5.61518 10.7944 13.0165 10.7813 21.9902C10.7682 34.3783 13.1084 44.6612 14.2883 49.0494C14.9438 48.4047 15.2782 48.0757 15.9533 47.4112C17.8937 45.4375 19.5456 43.181 21.0008 40.8257C24.1145 35.7994 25.6943 30.4112 25.7075 23.9375C25.7206 16.9836 25.8386 10.852 25.8582 3.37834Z" fill="#272726"/>
<path fill-rule="evenodd" clip-rule="evenodd" d="M12.1736 43.3127C11.6361 42.8456 11.3739 42.6087 10.8626 42.135C5.59224 37.2798 2.16388 31.1021 2 23.8521C2.07211 22.0692 2.1901 20.2864 2.34742 18.51C2.38676 18.089 2.60963 17.7469 2.83906 17.7403H2.84562C3.08161 17.7337 3.23893 18.0627 3.1996 18.4837C3.04227 20.2798 2.93739 22.0692 2.87839 23.8653C3.06849 30.1021 5.86756 35.3916 10.2005 39.7798C8.85672 31.5429 8.5093 23.3587 9.15171 15.0429C6.99505 15.2074 4.83839 15.3521 2.67518 15.4574C3.05538 12.635 3.51425 9.83898 4.07144 7.04293C4.3402 5.77319 5.12682 4.68109 5.80856 4.58898C7.821 4.31925 9.83344 4.04951 11.8393 3.77319C11.4264 5.89161 11.0593 8.00346 10.7446 10.135C10.6856 10.5692 10.4037 10.9508 10.1219 10.9837C10.1153 10.9837 10.1153 10.9837 10.1088 10.9837C9.82689 11.01 9.6499 10.6811 9.7089 10.2469C9.93177 8.65477 10.2005 7.06925 10.5086 5.4903C8.8305 5.70082 7.14582 5.91793 5.46769 6.12846C5.23826 6.16135 4.97605 6.52319 4.89084 6.95083C4.41231 9.24688 4.019 11.5561 3.7109 13.8785C5.92656 13.7271 8.14221 13.5429 10.3579 13.3521C9.44669 23.4574 10.0563 33.3982 12.1736 43.3127Z" fill="white"/>
<path fill-rule="evenodd" clip-rule="evenodd" d="M14.5134 43.3849C11.5308 30.1941 11.3145 16.9178 13.8645 3.6349C16.4407 3.28621 19.0169 2.96385 21.593 2.66121C22.8385 2.51648 23.4875 3.72042 23.2122 5.32569C23.0221 6.39148 23.0155 7.59543 22.8779 8.75332C22.8189 9.27306 22.5632 9.78621 22.1109 9.83227C22.1044 9.83227 22.0978 9.83227 22.0912 9.83227C21.7045 9.87174 21.4161 9.53622 21.4488 9.08885C21.593 7.45727 21.6783 6.6349 21.9011 5.0099C21.9601 4.56253 21.711 4.23358 21.3374 4.27306C19.1021 4.51648 16.8668 4.78621 14.638 5.08227C12.8681 15.5494 13.0582 29.5231 15.11 39.931C18.7153 35.1152 21.947 29.3323 21.4488 23.1086C21.3112 21.1744 21.2128 19.2467 21.1604 17.3125C19.7052 17.431 18.3089 17.556 16.9651 17.6678C16.6045 17.7007 16.3227 17.3586 16.3358 16.9112C16.3358 16.9046 16.3358 16.9046 16.3358 16.8981C16.3489 16.4507 16.6504 16.0625 17.0044 16.0296C18.8858 15.8586 20.7671 15.6941 22.655 15.5231C22.6615 17.9375 22.7533 20.3125 23.0352 22.9836C23.7169 30.1875 19.8231 36.9441 15.3984 42.306C15.0379 42.7402 14.8609 42.9573 14.5134 43.3849Z" fill="white"/>
<path fill-rule="evenodd" clip-rule="evenodd" d="M33.4377 21.9376L39.4619 21.9573L39.4357 28.9112C39.4357 29.602 39.8552 29.9507 40.6877 29.9507C41.494 29.9573 41.9004 29.6086 41.9004 28.9178L41.9135 25.3257C41.9201 24.227 41.1925 22.9376 39.7372 21.4507C36.925 18.6941 35.1748 16.8455 34.4931 15.8981C33.8048 14.9507 33.4705 13.9112 33.4705 12.7862L33.4836 9.38493C33.4967 5.45072 36.0598 3.49677 41.1794 3.51651C45.7614 3.52966 48.0492 5.32572 48.0361 8.90466L48.0164 14.1481L41.9922 14.1283L42.0119 8.5494C42.0184 7.94414 41.6776 7.63493 41.0089 7.63493C40.2223 7.62835 39.8224 8.21387 39.8224 9.38493L39.9404 11.352C39.9404 12.477 40.6812 13.7928 42.1626 15.2928C44.9289 17.9639 46.6857 19.8257 47.433 20.8849C48.1803 21.9441 48.5539 23.1481 48.5539 24.4836L48.5343 28.352C48.5212 32.3783 45.9515 34.3849 40.8188 34.3718C35.8697 34.352 33.4049 32.5099 33.418 28.8455L33.4377 21.9376ZM187.891 30.0231L187.943 14.7862C187.943 14.0626 187.603 13.7073 186.914 13.7007C186.213 13.7007 185.859 14.0691 185.859 14.8191L185.806 30.0165C185.8 30.7599 186.147 31.1349 186.855 31.1349C187.543 31.1415 187.884 30.7665 187.891 30.0231ZM193.876 34.6283L189.333 34.6152L188.828 33.7862C187.793 34.556 186.626 34.9441 185.315 34.9376C183.781 34.931 182.476 34.5691 181.401 33.8455C180.333 33.1218 179.795 32.1415 179.802 30.9047L179.861 13.2731C179.861 12.2336 180.293 11.4047 181.146 10.7994C181.998 10.1876 183.034 9.88493 184.24 9.89151C185.905 9.89151 187.144 10.2007 187.956 10.8126L187.976 4.99677L193.981 4.14808L193.876 34.6283ZM177.953 20.2007L171.955 20.181L171.968 14.852C171.975 14.1086 171.634 13.7336 170.946 13.7336C170.257 13.727 169.91 14.0889 169.91 14.806L169.838 34.5428L163.84 34.5231L163.925 9.98361L169.923 10.0099V10.8323C170.723 10.1744 171.962 9.84545 173.633 9.85203C174.826 9.85861 175.849 10.181 176.701 10.8257C177.553 11.4705 177.979 12.3126 177.979 13.352L177.953 20.2007ZM155.797 29.9112L155.823 23.5889C154.44 23.9244 153.752 24.5428 153.752 25.4441L153.732 29.9047C153.732 30.6481 154.086 31.0231 154.807 31.0231C155.462 31.0297 155.797 30.6547 155.797 29.9112ZM161.782 34.5165L156.478 34.4968V33.5494C156.026 34.4047 154.741 34.8323 152.624 34.8257C149.353 34.8126 147.721 33.5231 147.727 30.9573L147.747 26.0362C147.754 24.9376 148.153 23.977 148.947 23.1612C149.74 22.352 151.346 21.3323 153.745 20.1152C155.141 19.4178 155.836 18.8586 155.836 18.431L155.849 14.7994C155.856 13.9968 155.508 13.5955 154.82 13.5889C154.033 13.5889 153.64 14.5626 153.634 16.5231C153.634 16.8783 153.653 17.3981 153.693 18.0889C153.745 18.7797 153.771 19.2994 153.771 19.6481L147.976 19.6283L147.996 14.727C148.009 11.4178 150.402 9.77308 155.174 9.78624C159.638 9.7994 161.867 11.5362 161.854 14.9902L161.782 34.5165ZM145.662 34.4573L139.664 34.4376V33.6152C138.891 34.3849 137.645 34.7731 135.941 34.7665C134.761 34.7599 133.739 34.4441 132.873 33.8126C132.015 33.181 131.582 32.3586 131.588 31.3455L131.661 9.87177L137.659 9.89151L137.593 29.8455C137.593 30.5955 137.94 30.9639 138.642 30.9705C139.33 30.9705 139.678 30.6152 139.678 29.8981L139.75 9.90466L145.748 9.9244L145.662 34.4573ZM129.524 34.4047L126.338 34.3915L125.486 32.7205C124.017 34.0099 122.47 34.6547 120.845 34.6481C119.258 34.6415 117.875 34.227 116.689 33.3981C115.502 32.5691 114.919 31.2533 114.925 29.4507L114.991 9.66782C115.004 5.73361 117.508 3.77966 122.51 3.7994C127.255 3.81256 129.622 5.61519 129.609 9.18756L129.589 14.8126L123.565 14.7928L123.585 8.66124C123.591 8.16782 123.263 7.9244 122.608 7.91782C121.959 7.91782 121.631 8.16124 121.631 8.65466L121.559 29.6876C121.552 30.181 121.88 30.4244 122.536 30.4244C123.185 30.431 123.512 30.1876 123.512 29.6941L123.532 24.0297L122.529 24.0231L122.542 19.3718L129.576 19.3981L129.524 34.4047ZM106.869 29.7402L106.921 14.5033C106.921 13.7797 106.58 13.4244 105.892 13.4178C105.191 13.4178 104.837 13.7862 104.837 14.5362L104.784 29.7336C104.778 30.477 105.125 30.852 105.833 30.852C106.521 30.8586 106.862 30.4836 106.869 29.7402ZM112.854 34.3455L108.311 34.3323L107.806 33.5033C106.771 34.2731 105.604 34.6612 104.293 34.6547C102.759 34.6481 101.454 34.2862 100.386 33.5626C99.3107 32.8389 98.7732 31.8586 98.7798 30.6218L98.8388 12.9902C98.8388 11.9507 99.2714 11.1218 100.124 10.5165C100.976 9.90466 102.011 9.60203 103.218 9.60861C104.883 9.60861 106.122 9.91782 106.934 10.5297L106.954 4.71387L112.959 3.86519L112.854 34.3455ZM96.7083 34.2928L90.7103 34.2665L90.7759 14.5691C90.7824 13.8257 90.435 13.4507 89.7402 13.4507C89.0453 13.4441 88.6913 13.806 88.6913 14.5231L88.6258 34.2599L82.6212 34.2402L82.7064 9.70072L88.711 9.72703L88.7044 10.5494C89.5107 9.89151 90.7497 9.56256 92.4278 9.56914C93.5094 9.56914 94.5058 9.87177 95.4169 10.4639C96.3347 11.0626 96.787 11.931 96.7804 13.0691L96.7083 34.2928ZM80.5695 34.2336L74.5649 34.2139L74.5715 33.3915C73.7914 34.1612 72.5525 34.5428 70.8481 34.5362C69.6682 34.5362 68.6456 34.2139 67.7803 33.5889C66.915 32.9573 66.4889 32.1349 66.4889 31.1218L66.5676 9.64808L72.5656 9.66782L72.5 29.6218C72.4935 30.3652 72.8475 30.7402 73.5489 30.7402C74.2371 30.7468 74.578 30.3849 74.5846 29.6678L74.6501 9.6744L80.6547 9.69414L80.5695 34.2336ZM58.4392 29.4836L58.4916 14.4573C58.4982 13.6547 58.1507 13.2533 57.4624 13.2533C56.761 13.2468 56.4136 13.6481 56.4071 14.4507L56.3546 29.477C56.3546 30.3126 56.702 30.727 57.4034 30.727C58.0917 30.7336 58.4392 30.3191 58.4392 29.4836ZM50.3566 29.2862L50.4091 14.602C50.4156 11.1481 52.8017 9.43098 57.5608 9.44414C59.4028 9.45072 61.0153 9.85861 62.4116 10.6678C63.8079 11.477 64.5027 12.7336 64.4961 14.4376L64.4437 29.5494C64.4306 32.8586 62.1101 34.5099 57.4755 34.4902C52.7165 34.477 50.3435 32.7402 50.3566 29.2862Z" fill="#7A7A7A"/>
</svg>
